<svg width="859.725" height="57.75" viewBox="0 0 859.725 57.75" xmlns="http://www.w3.org/2000/svg"><g id="svgGroup" stroke-linecap="round" fill-rule="evenodd" font-size="9pt" stroke="#000" stroke-width="0.25mm" fill="#000" style="stroke:#000;stroke-width:0.25mm;fill:#000"><path d="M 3.45 55.875 L 14.625 55.875 Q 15.47 55.875 16.038 55.651 A 1.88 1.88 0 0 0 16.688 55.238 A 1.895 1.895 0 0 0 17.112 54.56 Q 17.225 54.262 17.278 53.89 A 5.075 5.075 0 0 0 17.325 53.175 L 17.325 26.775 L 21.75 34.95 A 6.061 6.061 0 0 0 22.293 35.806 Q 22.777 36.436 23.363 36.788 Q 24.205 37.293 25.441 37.344 A 6.855 6.855 0 0 0 25.725 37.35 L 28.725 37.35 Q 30.15 37.35 31.088 36.788 Q 31.923 36.287 32.549 35.221 A 6.951 6.951 0 0 0 32.7 34.95 L 37.125 26.775 L 37.125 53.175 Q 37.125 54.02 37.349 54.588 A 1.88 1.88 0 0 0 37.763 55.238 A 1.895 1.895 0 0 0 38.441 55.662 Q 38.738 55.775 39.111 55.828 A 5.075 5.075 0 0 0 39.825 55.875 L 51.375 55.875 Q 52.22 55.875 52.788 55.651 A 1.88 1.88 0 0 0 53.438 55.238 A 1.895 1.895 0 0 0 53.862 54.56 Q 53.975 54.262 54.028 53.89 A 5.075 5.075 0 0 0 54.075 53.175 L 54.075 4.575 Q 54.075 3.73 53.851 3.162 A 1.88 1.88 0 0 0 53.438 2.513 A 1.895 1.895 0 0 0 52.76 2.088 Q 52.462 1.975 52.09 1.922 A 5.075 5.075 0 0 0 51.375 1.875 L 39.225 1.875 Q 38.025 1.875 37.238 2.4 A 3.512 3.512 0 0 0 36.616 2.938 Q 36.348 3.227 36.094 3.605 A 7.715 7.715 0 0 0 35.775 4.125 L 29.1 16.35 Q 28.725 17.025 28.463 17.325 A 0.863 0.863 0 0 1 27.893 17.617 A 1.223 1.223 0 0 1 27.75 17.625 L 27.075 17.625 A 1.087 1.087 0 0 1 26.758 17.581 A 0.84 0.84 0 0 1 26.363 17.325 A 2.797 2.797 0 0 1 26.206 17.127 Q 25.995 16.835 25.725 16.35 L 18.975 4.125 A 7.222 7.222 0 0 0 18.498 3.38 Q 18.234 3.023 17.956 2.757 A 3.298 3.298 0 0 0 17.513 2.4 A 3 3 0 0 0 16.504 1.977 Q 16.111 1.888 15.656 1.877 A 5.332 5.332 0 0 0 15.525 1.875 L 3.45 1.875 Q 2.605 1.875 2.037 2.099 A 1.88 1.88 0 0 0 1.388 2.513 A 1.895 1.895 0 0 0 0.963 3.191 Q 0.85 3.489 0.797 3.861 A 5.075 5.075 0 0 0 0.75 4.575 L 0.75 53.175 Q 0.75 54.02 0.974 54.588 A 1.88 1.88 0 0 0 1.388 55.238 A 1.895 1.895 0 0 0 2.066 55.662 Q 2.363 55.775 2.736 55.828 A 5.075 5.075 0 0 0 3.45 55.875 Z M 14.625 56.625 L 3.45 56.625 A 6.238 6.238 0 0 1 2.515 56.56 Q 2.026 56.486 1.638 56.327 A 2.436 2.436 0 0 1 0.825 55.8 A 2.484 2.484 0 0 1 0.261 54.892 Q 0 54.188 0 53.175 L 0 4.575 A 6.238 6.238 0 0 1 0.065 3.64 Q 0.14 3.151 0.298 2.763 A 2.436 2.436 0 0 1 0.825 1.95 A 2.484 2.484 0 0 1 1.734 1.386 Q 2.438 1.125 3.45 1.125 L 15.525 1.125 Q 16.755 1.125 17.622 1.572 A 3.29 3.29 0 0 1 17.888 1.725 A 4.049 4.049 0 0 1 18.624 2.342 Q 18.94 2.672 19.243 3.107 A 9.167 9.167 0 0 1 19.65 3.75 L 26.4 15.975 Q 26.55 16.275 26.663 16.575 A 0.556 0.556 0 0 0 26.743 16.724 Q 26.853 16.863 27.042 16.874 A 0.57 0.57 0 0 0 27.075 16.875 L 27.75 16.875 Q 27.996 16.875 28.116 16.674 A 0.613 0.613 0 0 0 28.163 16.575 Q 28.275 16.275 28.425 15.975 L 35.1 3.75 A 8.659 8.659 0 0 1 35.667 2.886 Q 35.98 2.469 36.309 2.161 A 3.827 3.827 0 0 1 36.863 1.725 Q 37.8 1.125 39.225 1.125 L 51.375 1.125 A 6.238 6.238 0 0 1 52.31 1.19 Q 52.799 1.265 53.187 1.423 A 2.436 2.436 0 0 1 54 1.95 A 2.484 2.484 0 0 1 54.564 2.859 Q 54.825 3.563 54.825 4.575 L 54.825 53.175 A 6.238 6.238 0 0 1 54.76 54.111 Q 54.686 54.599 54.527 54.987 A 2.436 2.436 0 0 1 54 55.8 A 2.484 2.484 0 0 1 53.092 56.364 Q 52.388 56.625 51.375 56.625 L 39.825 56.625 A 6.739 6.739 0 0 1 38.906 56.567 Q 37.828 56.418 37.252 55.888 A 1.943 1.943 0 0 1 37.163 55.8 Q 36.59 55.2 36.434 54.085 A 6.575 6.575 0 0 1 36.375 53.175 L 36.375 29.775 L 33.375 35.325 A 6.338 6.338 0 0 1 32.676 36.394 A 4.541 4.541 0 0 1 31.5 37.425 Q 30.375 38.1 28.725 38.1 L 25.725 38.1 Q 24.182 38.1 23.098 37.51 A 4.089 4.089 0 0 1 22.95 37.425 Q 21.825 36.75 21.075 35.325 L 18.075 29.775 L 18.075 53.175 A 6.238 6.238 0 0 1 18.01 54.111 Q 17.936 54.599 17.777 54.987 A 2.436 2.436 0 0 1 17.25 55.8 A 2.484 2.484 0 0 1 16.342 56.364 Q 15.638 56.625 14.625 56.625 Z M 30.975 23.85 L 40.125 9.9 Q 40.452 9.355 40.838 9.068 A 1.718 1.718 0 0 1 41.138 8.888 Q 41.7 8.625 42.3 8.625 L 43.575 8.625 A 3.094 3.094 0 0 1 44.149 8.675 Q 44.464 8.734 44.708 8.866 A 1.425 1.425 0 0 1 45.113 9.188 A 1.704 1.704 0 0 1 45.419 9.724 Q 45.6 10.219 45.6 10.95 L 45.6 49.125 L 44.85 49.125 L 44.85 10.95 A 2.367 2.367 0 0 0 44.742 10.228 A 2.135 2.135 0 0 0 44.588 9.863 Q 44.325 9.375 43.575 9.375 L 42.45 9.375 A 3.09 3.09 0 0 0 42.048 9.4 Q 41.773 9.436 41.55 9.525 A 0.876 0.876 0 0 0 41.322 9.666 Q 41.119 9.833 40.896 10.157 A 5.183 5.183 0 0 0 40.725 10.425 L 31.575 24.225 A 53.359 53.359 0 0 1 30.94 25.158 Q 30.048 26.437 29.513 26.999 A 1.987 1.987 0 0 1 29.513 27 A 2.091 2.091 0 0 1 28.745 27.499 Q 28.406 27.632 27.979 27.695 A 5.74 5.74 0 0 1 27.15 27.75 A 5.734 5.734 0 0 1 26.318 27.694 Q 25.891 27.631 25.552 27.498 A 2.089 2.089 0 0 1 24.788 27 A 8.114 8.114 0 0 1 24.392 26.545 Q 23.738 25.744 22.725 24.225 L 13.575 10.425 Q 13.219 9.831 12.886 9.613 A 0.846 0.846 0 0 0 12.713 9.525 Q 12.3 9.375 11.775 9.375 L 10.65 9.375 A 1.775 1.775 0 0 0 10.308 9.406 Q 9.844 9.497 9.675 9.863 A 2.455 2.455 0 0 0 9.464 10.657 A 2.992 2.992 0 0 0 9.45 10.95 L 9.45 49.125 L 8.7 49.125 L 8.7 10.95 A 4.705 4.705 0 0 1 8.739 10.326 Q 8.835 9.607 9.174 9.204 A 1.417 1.417 0 0 1 9.188 9.188 A 1.548 1.548 0 0 1 9.951 8.714 Q 10.262 8.625 10.65 8.625 L 11.925 8.625 A 2.9 2.9 0 0 1 12.919 8.805 A 3.427 3.427 0 0 1 13.125 8.888 A 1.925 1.925 0 0 1 13.696 9.28 Q 13.954 9.531 14.175 9.9 L 23.325 23.85 Q 24.429 25.538 25.026 26.214 A 4.163 4.163 0 0 0 25.2 26.4 A 1.777 1.777 0 0 0 25.833 26.797 Q 26.364 27 27.15 27 A 4.793 4.793 0 0 0 27.849 26.953 Q 28.669 26.832 29.1 26.4 A 5.174 5.174 0 0 0 29.418 26.045 Q 29.999 25.343 30.975 23.85 Z M 226.65 56.625 L 191.85 56.625 A 6.238 6.238 0 0 1 190.915 56.56 Q 190.426 56.486 190.038 56.327 A 2.436 2.436 0 0 1 189.225 55.8 A 2.484 2.484 0 0 1 188.661 54.892 Q 188.4 54.188 188.4 53.175 L 188.4 4.575 A 6.238 6.238 0 0 1 188.465 3.64 Q 188.54 3.151 188.698 2.763 A 2.436 2.436 0 0 1 189.225 1.95 A 2.484 2.484 0 0 1 190.134 1.386 Q 190.838 1.125 191.85 1.125 L 226.65 1.125 A 6.238 6.238 0 0 1 227.585 1.19 Q 228.074 1.265 228.462 1.423 A 2.436 2.436 0 0 1 229.275 1.95 A 2.484 2.484 0 0 1 229.839 2.859 Q 230.1 3.563 230.1 4.575 L 230.1 13.35 A 6.238 6.238 0 0 1 230.035 14.286 Q 229.961 14.774 229.802 15.162 A 2.436 2.436 0 0 1 229.275 15.975 A 2.484 2.484 0 0 1 228.367 16.539 Q 227.663 16.8 226.65 16.8 L 206.7 16.8 L 206.7 21.075 L 220.575 21.075 A 6.238 6.238 0 0 1 221.51 21.14 Q 221.999 21.215 222.387 21.373 A 2.436 2.436 0 0 1 223.2 21.9 A 2.484 2.484 0 0 1 223.764 22.809 Q 224.025 23.513 224.025 24.525 L 224.025 32.55 A 6.238 6.238 0 0 1 223.96 33.486 Q 223.886 33.974 223.727 34.362 A 2.436 2.436 0 0 1 223.2 35.175 A 2.484 2.484 0 0 1 222.292 35.739 Q 221.588 36 220.575 36 L 206.7 36 L 206.7 40.95 L 226.65 40.95 A 6.238 6.238 0 0 1 227.585 41.015 Q 228.074 41.09 228.462 41.248 A 2.436 2.436 0 0 1 229.275 41.775 A 2.484 2.484 0 0 1 229.839 42.684 Q 230.1 43.388 230.1 44.4 L 230.1 53.175 A 6.238 6.238 0 0 1 230.035 54.111 Q 229.961 54.599 229.802 54.987 A 2.436 2.436 0 0 1 229.275 55.8 A 2.484 2.484 0 0 1 228.367 56.364 Q 227.663 56.625 226.65 56.625 Z M 191.85 55.875 L 226.65 55.875 Q 227.495 55.875 228.063 55.651 A 1.88 1.88 0 0 0 228.713 55.238 A 1.895 1.895 0 0 0 229.137 54.56 Q 229.25 54.262 229.303 53.89 A 5.075 5.075 0 0 0 229.35 53.175 L 229.35 44.4 Q 229.35 43.555 229.126 42.987 A 1.88 1.88 0 0 0 228.713 42.338 A 1.895 1.895 0 0 0 228.035 41.913 Q 227.737 41.8 227.365 41.747 A 5.075 5.075 0 0 0 226.65 41.7 L 205.95 41.7 L 205.95 35.25 L 220.575 35.25 Q 221.42 35.25 221.988 35.026 A 1.88 1.88 0 0 0 222.638 34.613 A 1.895 1.895 0 0 0 223.062 33.935 Q 223.175 33.637 223.228 33.265 A 5.075 5.075 0 0 0 223.275 32.55 L 223.275 24.525 Q 223.275 23.68 223.051 23.112 A 1.88 1.88 0 0 0 222.638 22.463 A 1.895 1.895 0 0 0 221.96 22.038 Q 221.662 21.925 221.29 21.872 A 5.075 5.075 0 0 0 220.575 21.825 L 205.95 21.825 L 205.95 16.05 L 226.65 16.05 Q 227.495 16.05 228.063 15.826 A 1.88 1.88 0 0 0 228.713 15.413 A 1.895 1.895 0 0 0 229.137 14.735 Q 229.25 14.437 229.303 14.065 A 5.075 5.075 0 0 0 229.35 13.35 L 229.35 4.575 Q 229.35 3.73 229.126 3.162 A 1.88 1.88 0 0 0 228.713 2.513 A 1.895 1.895 0 0 0 228.035 2.088 Q 227.737 1.975 227.365 1.922 A 5.075 5.075 0 0 0 226.65 1.875 L 191.85 1.875 Q 191.005 1.875 190.437 2.099 A 1.88 1.88 0 0 0 189.788 2.513 A 1.895 1.895 0 0 0 189.363 3.191 Q 189.25 3.489 189.197 3.861 A 5.075 5.075 0 0 0 189.15 4.575 L 189.15 53.175 Q 189.15 54.02 189.374 54.588 A 1.88 1.88 0 0 0 189.788 55.238 A 1.895 1.895 0 0 0 190.466 55.662 Q 190.763 55.775 191.136 55.828 A 5.075 5.075 0 0 0 191.85 55.875 Z M 147.675 56.625 L 136.125 56.625 A 6.238 6.238 0 0 1 135.19 56.56 Q 134.701 56.486 134.313 56.327 A 2.436 2.436 0 0 1 133.5 55.8 A 2.484 2.484 0 0 1 132.936 54.892 Q 132.675 54.188 132.675 53.175 L 132.675 4.575 A 6.238 6.238 0 0 1 132.74 3.64 Q 132.815 3.151 132.973 2.763 A 2.436 2.436 0 0 1 133.5 1.95 A 2.484 2.484 0 0 1 134.409 1.386 Q 135.113 1.125 136.125 1.125 L 161.1 1.125 Q 168.601 1.125 172.129 3.748 A 7.895 7.895 0 0 1 173.325 4.838 A 12.846 12.846 0 0 1 176.364 11.279 A 17.916 17.916 0 0 1 176.625 14.4 L 176.625 17.85 Q 176.625 20.625 175.95 22.688 A 7.299 7.299 0 0 1 174.755 24.958 A 6.725 6.725 0 0 1 173.7 26.025 Q 177.225 27 179.363 29.925 A 10.815 10.815 0 0 1 181.2 34.167 A 15.284 15.284 0 0 1 181.5 37.275 L 181.5 53.175 A 6.238 6.238 0 0 1 181.435 54.111 Q 181.361 54.599 181.202 54.987 A 2.436 2.436 0 0 1 180.675 55.8 A 2.484 2.484 0 0 1 179.767 56.364 Q 179.063 56.625 178.05 56.625 L 166.425 56.625 A 6.238 6.238 0 0 1 165.49 56.56 Q 165.001 56.486 164.613 56.327 A 2.436 2.436 0 0 1 163.8 55.8 A 2.484 2.484 0 0 1 163.236 54.892 Q 162.975 54.188 162.975 53.175 L 162.975 41.7 A 5.138 5.138 0 0 0 162.932 41.013 Q 162.886 40.669 162.789 40.389 A 2.09 2.09 0 0 0 162.525 39.863 A 1.342 1.342 0 0 0 161.913 39.395 Q 161.677 39.299 161.378 39.258 A 3.65 3.65 0 0 0 160.875 39.225 L 151.125 39.225 L 151.125 53.175 A 6.238 6.238 0 0 1 151.06 54.111 Q 150.986 54.599 150.827 54.987 A 2.436 2.436 0 0 1 150.3 55.8 A 2.484 2.484 0 0 1 149.392 56.364 Q 148.688 56.625 147.675 56.625 Z M 526.05 56.625 L 514.5 56.625 A 6.238 6.238 0 0 1 513.565 56.56 Q 513.076 56.486 512.688 56.327 A 2.436 2.436 0 0 1 511.875 55.8 A 2.484 2.484 0 0 1 511.311 54.892 Q 511.05 54.188 511.05 53.175 L 511.05 4.575 A 6.238 6.238 0 0 1 511.115 3.64 Q 511.19 3.151 511.348 2.763 A 2.436 2.436 0 0 1 511.875 1.95 A 2.484 2.484 0 0 1 512.784 1.386 Q 513.488 1.125 514.5 1.125 L 539.475 1.125 Q 546.976 1.125 550.504 3.748 A 7.895 7.895 0 0 1 551.7 4.838 A 12.846 12.846 0 0 1 554.739 11.279 A 17.916 17.916 0 0 1 555 14.4 L 555 17.85 Q 555 20.625 554.325 22.688 A 7.299 7.299 0 0 1 553.13 24.958 A 6.725 6.725 0 0 1 552.075 26.025 Q 555.6 27 557.738 29.925 A 10.815 10.815 0 0 1 559.575 34.167 A 15.284 15.284 0 0 1 559.875 37.275 L 559.875 53.175 A 6.238 6.238 0 0 1 559.81 54.111 Q 559.736 54.599 559.577 54.987 A 2.436 2.436 0 0 1 559.05 55.8 A 2.484 2.484 0 0 1 558.142 56.364 Q 557.438 56.625 556.425 56.625 L 544.8 56.625 A 6.238 6.238 0 0 1 543.865 56.56 Q 543.376 56.486 542.988 56.327 A 2.436 2.436 0 0 1 542.175 55.8 A 2.484 2.484 0 0 1 541.611 54.892 Q 541.35 54.188 541.35 53.175 L 541.35 41.7 A 5.138 5.138 0 0 0 541.307 41.013 Q 541.261 40.669 541.164 40.389 A 2.09 2.09 0 0 0 540.9 39.863 A 1.342 1.342 0 0 0 540.288 39.395 Q 540.052 39.299 539.753 39.258 A 3.65 3.65 0 0 0 539.25 39.225 L 529.5 39.225 L 529.5 53.175 A 6.238 6.238 0 0 1 529.435 54.111 Q 529.361 54.599 529.202 54.987 A 2.436 2.436 0 0 1 528.675 55.8 A 2.484 2.484 0 0 1 527.767 56.364 Q 527.063 56.625 526.05 56.625 Z M 136.125 55.875 L 147.675 55.875 Q 148.52 55.875 149.088 55.651 A 1.88 1.88 0 0 0 149.738 55.238 A 1.895 1.895 0 0 0 150.162 54.56 Q 150.275 54.262 150.328 53.89 A 5.075 5.075 0 0 0 150.375 53.175 L 150.375 38.475 L 160.875 38.475 A 4.959 4.959 0 0 1 161.646 38.531 Q 162.049 38.594 162.365 38.731 A 1.852 1.852 0 0 1 163.088 39.263 A 2.436 2.436 0 0 1 163.485 40.001 Q 163.725 40.688 163.725 41.7 L 163.725 53.175 Q 163.725 54.02 163.949 54.588 A 1.88 1.88 0 0 0 164.363 55.238 A 1.895 1.895 0 0 0 165.041 55.662 Q 165.338 55.775 165.711 55.828 A 5.075 5.075 0 0 0 166.425 55.875 L 178.05 55.875 Q 178.895 55.875 179.463 55.651 A 1.88 1.88 0 0 0 180.113 55.238 A 1.895 1.895 0 0 0 180.537 54.56 Q 180.65 54.262 180.703 53.89 A 5.075 5.075 0 0 0 180.75 53.175 L 180.75 37.275 Q 180.75 32.55 178.238 29.7 Q 175.725 26.85 171.675 26.4 Q 174 25.425 174.938 23.213 Q 175.766 21.257 175.862 18.57 A 20.098 20.098 0 0 0 175.875 17.85 L 175.875 14.4 A 15.806 15.806 0 0 0 175.389 10.379 A 11.724 11.724 0 0 0 172.688 5.363 A 8.813 8.813 0 0 0 169.564 3.237 Q 166.35 1.875 161.1 1.875 L 136.125 1.875 Q 135.28 1.875 134.712 2.099 A 1.88 1.88 0 0 0 134.063 2.513 A 1.895 1.895 0 0 0 133.638 3.191 Q 133.525 3.489 133.472 3.861 A 5.075 5.075 0 0 0 133.425 4.575 L 133.425 53.175 Q 133.425 54.02 133.649 54.588 A 1.88 1.88 0 0 0 134.063 55.238 A 1.895 1.895 0 0 0 134.741 55.662 Q 135.038 55.775 135.411 55.828 A 5.075 5.075 0 0 0 136.125 55.875 Z M 514.5 55.875 L 526.05 55.875 Q 526.895 55.875 527.463 55.651 A 1.88 1.88 0 0 0 528.113 55.238 A 1.895 1.895 0 0 0 528.537 54.56 Q 528.65 54.262 528.703 53.89 A 5.075 5.075 0 0 0 528.75 53.175 L 528.75 38.475 L 539.25 38.475 A 4.959 4.959 0 0 1 540.021 38.531 Q 540.424 38.594 540.74 38.731 A 1.852 1.852 0 0 1 541.463 39.263 A 2.436 2.436 0 0 1 541.86 40.001 Q 542.1 40.688 542.1 41.7 L 542.1 53.175 Q 542.1 54.02 542.324 54.588 A 1.88 1.88 0 0 0 542.738 55.238 A 1.895 1.895 0 0 0 543.416 55.662 Q 543.713 55.775 544.086 55.828 A 5.075 5.075 0 0 0 544.8 55.875 L 556.425 55.875 Q 557.27 55.875 557.838 55.651 A 1.88 1.88 0 0 0 558.488 55.238 A 1.895 1.895 0 0 0 558.912 54.56 Q 559.025 54.262 559.078 53.89 A 5.075 5.075 0 0 0 559.125 53.175 L 559.125 37.275 Q 559.125 32.55 556.613 29.7 Q 554.1 26.85 550.05 26.4 Q 552.375 25.425 553.313 23.213 Q 554.141 21.257 554.237 18.57 A 20.098 20.098 0 0 0 554.25 17.85 L 554.25 14.4 A 15.806 15.806 0 0 0 553.764 10.379 A 11.724 11.724 0 0 0 551.063 5.363 A 8.813 8.813 0 0 0 547.939 3.237 Q 544.725 1.875 539.475 1.875 L 514.5 1.875 Q 513.655 1.875 513.087 2.099 A 1.88 1.88 0 0 0 512.438 2.513 A 1.895 1.895 0 0 0 512.013 3.191 Q 511.9 3.489 511.847 3.861 A 5.075 5.075 0 0 0 511.8 4.575 L 511.8 53.175 Q 511.8 54.02 512.024 54.588 A 1.88 1.88 0 0 0 512.438 55.238 A 1.895 1.895 0 0 0 513.116 55.662 Q 513.413 55.775 513.786 55.828 A 5.075 5.075 0 0 0 514.5 55.875 Z M 756.6 56.625 L 718.425 56.625 A 6.238 6.238 0 0 1 717.49 56.56 Q 717.001 56.486 716.613 56.327 A 2.436 2.436 0 0 1 715.8 55.8 A 2.484 2.484 0 0 1 715.236 54.892 Q 714.975 54.188 714.975 53.175 L 714.975 4.575 A 6.238 6.238 0 0 1 715.04 3.64 Q 715.115 3.151 715.273 2.763 A 2.436 2.436 0 0 1 715.8 1.95 A 2.484 2.484 0 0 1 716.709 1.386 Q 717.413 1.125 718.425 1.125 L 730.05 1.125 A 6.238 6.238 0 0 1 730.985 1.19 Q 731.474 1.265 731.862 1.423 A 2.436 2.436 0 0 1 732.675 1.95 A 2.484 2.484 0 0 1 733.239 2.859 Q 733.5 3.563 733.5 4.575 L 733.5 40.95 L 742.275 40.95 L 742.275 29.55 A 6.238 6.238 0 0 1 742.34 28.615 Q 742.415 28.126 742.573 27.738 A 2.436 2.436 0 0 1 743.1 26.925 A 2.484 2.484 0 0 1 744.009 26.361 Q 744.713 26.1 745.725 26.1 L 756.6 26.1 A 6.238 6.238 0 0 1 757.535 26.165 Q 758.024 26.24 758.412 26.398 A 2.436 2.436 0 0 1 759.225 26.925 A 2.484 2.484 0 0 1 759.789 27.834 Q 760.05 28.538 760.05 29.55 L 760.05 53.175 A 6.238 6.238 0 0 1 759.985 54.111 Q 759.911 54.599 759.752 54.987 A 2.436 2.436 0 0 1 759.225 55.8 A 2.484 2.484 0 0 1 758.317 56.364 Q 757.613 56.625 756.6 56.625 Z M 91.8 56.625 L 79.65 56.625 A 6.739 6.739 0 0 1 78.731 56.567 Q 77.653 56.418 77.077 55.888 A 1.943 1.943 0 0 1 76.988 55.8 Q 76.415 55.2 76.259 54.085 A 6.575 6.575 0 0 1 76.2 53.175 L 76.2 43.8 L 64.875 28.65 A 24.742 24.742 0 0 1 63.867 27.209 Q 62.888 25.688 62.475 24.45 A 8.713 8.713 0 0 1 62.185 23.289 Q 61.948 22.009 61.892 20.16 A 39.455 39.455 0 0 1 61.875 18.975 L 61.875 4.575 A 6.238 6.238 0 0 1 61.94 3.64 Q 62.015 3.151 62.173 2.763 A 2.436 2.436 0 0 1 62.7 1.95 A 2.484 2.484 0 0 1 63.609 1.386 Q 64.313 1.125 65.325 1.125 L 76.875 1.125 A 6.238 6.238 0 0 1 77.81 1.19 Q 78.299 1.265 78.687 1.423 A 2.436 2.436 0 0 1 79.5 1.95 A 2.484 2.484 0 0 1 80.064 2.859 Q 80.325 3.563 80.325 4.575 L 80.325 16.875 Q 80.325 17.55 80.4 18.225 A 3.673 3.673 0 0 0 80.564 18.964 Q 80.673 19.296 80.847 19.645 A 6.193 6.193 0 0 0 80.85 19.65 L 84.375 25.05 A 3.114 3.114 0 0 0 84.534 25.333 Q 84.69 25.577 84.863 25.725 A 0.931 0.931 0 0 0 85.43 25.948 A 1.199 1.199 0 0 0 85.5 25.95 L 86.25 25.95 A 1.038 1.038 0 0 0 86.592 25.896 A 0.907 0.907 0 0 0 86.888 25.725 A 2.109 2.109 0 0 0 87.072 25.544 Q 87.253 25.345 87.45 25.05 L 90.9 19.65 A 5.081 5.081 0 0 0 91.184 18.969 A 3.677 3.677 0 0 0 91.35 18.225 Q 91.425 17.55 91.425 16.875 L 91.425 4.575 A 6.238 6.238 0 0 1 91.49 3.64 Q 91.565 3.151 91.723 2.763 A 2.436 2.436 0 0 1 92.25 1.95 A 2.484 2.484 0 0 1 93.159 1.386 Q 93.863 1.125 94.875 1.125 L 106.05 1.125 A 6.238 6.238 0 0 1 106.985 1.19 Q 107.474 1.265 107.862 1.423 A 2.436 2.436 0 0 1 108.675 1.95 A 2.484 2.484 0 0 1 109.239 2.859 Q 109.5 3.563 109.5 4.575 L 109.5 18.975 Q 109.5 22.65 108.9 24.45 Q 108.497 25.66 107.552 27.14 A 24.498 24.498 0 0 1 106.5 28.65 L 95.25 43.875 L 95.25 53.175 A 6.238 6.238 0 0 1 95.185 54.111 Q 95.111 54.599 94.952 54.987 A 2.436 2.436 0 0 1 94.425 55.8 A 2.484 2.484 0 0 1 93.517 56.364 Q 92.813 56.625 91.8 56.625 Z M 718.425 55.875 L 756.6 55.875 Q 757.445 55.875 758.013 55.651 A 1.88 1.88 0 0 0 758.663 55.238 A 1.895 1.895 0 0 0 759.087 54.56 Q 759.2 54.262 759.253 53.89 A 5.075 5.075 0 0 0 759.3 53.175 L 759.3 29.55 Q 759.3 28.705 759.076 28.137 A 1.88 1.88 0 0 0 758.663 27.488 A 1.895 1.895 0 0 0 757.985 27.063 Q 757.687 26.95 757.315 26.897 A 5.075 5.075 0 0 0 756.6 26.85 L 745.725 26.85 Q 744.88 26.85 744.312 27.074 A 1.88 1.88 0 0 0 743.663 27.488 A 1.895 1.895 0 0 0 743.238 28.166 Q 743.125 28.464 743.072 28.836 A 5.075 5.075 0 0 0 743.025 29.55 L 743.025 41.7 L 732.75 41.7 L 732.75 4.575 Q 732.75 3.73 732.526 3.162 A 1.88 1.88 0 0 0 732.113 2.513 A 1.895 1.895 0 0 0 731.435 2.088 Q 731.137 1.975 730.765 1.922 A 5.075 5.075 0 0 0 730.05 1.875 L 718.425 1.875 Q 717.58 1.875 717.012 2.099 A 1.88 1.88 0 0 0 716.363 2.513 A 1.895 1.895 0 0 0 715.938 3.191 Q 715.825 3.489 715.772 3.861 A 5.075 5.075 0 0 0 715.725 4.575 L 715.725 53.175 Q 715.725 54.02 715.949 54.588 A 1.88 1.88 0 0 0 716.363 55.238 A 1.895 1.895 0 0 0 717.041 55.662 Q 717.338 55.775 717.711 55.828 A 5.075 5.075 0 0 0 718.425 55.875 Z M 801.3 56.625 L 769.35 56.625 A 6.238 6.238 0 0 1 768.415 56.56 Q 767.926 56.486 767.538 56.327 A 2.436 2.436 0 0 1 766.725 55.8 A 2.484 2.484 0 0 1 766.161 54.892 Q 765.9 54.188 765.9 53.175 L 765.9 44.25 A 6.238 6.238 0 0 1 765.965 43.315 Q 766.04 42.826 766.198 42.438 A 2.436 2.436 0 0 1 766.725 41.625 A 2.484 2.484 0 0 1 767.634 41.061 Q 768.338 40.8 769.35 40.8 L 776.025 40.8 L 776.025 17.1 L 769.35 17.1 A 6.238 6.238 0 0 1 768.415 17.035 Q 767.926 16.961 767.538 16.802 A 2.436 2.436 0 0 1 766.725 16.275 A 2.484 2.484 0 0 1 766.161 15.367 Q 765.9 14.663 765.9 13.65 L 765.9 4.575 A 6.238 6.238 0 0 1 765.965 3.64 Q 766.04 3.151 766.198 2.763 A 2.436 2.436 0 0 1 766.725 1.95 A 2.484 2.484 0 0 1 767.634 1.386 Q 768.338 1.125 769.35 1.125 L 801.3 1.125 A 6.238 6.238 0 0 1 802.235 1.19 Q 802.724 1.265 803.112 1.423 A 2.436 2.436 0 0 1 803.925 1.95 A 2.484 2.484 0 0 1 804.489 2.859 Q 804.75 3.563 804.75 4.575 L 804.75 13.65 A 6.238 6.238 0 0 1 804.685 14.586 Q 804.611 15.074 804.452 15.462 A 2.436 2.436 0 0 1 803.925 16.275 A 2.484 2.484 0 0 1 803.017 16.839 Q 802.313 17.1 801.3 17.1 L 794.775 17.1 L 794.775 40.8 L 801.3 40.8 A 6.238 6.238 0 0 1 802.235 40.865 Q 802.724 40.94 803.112 41.098 A 2.436 2.436 0 0 1 803.925 41.625 A 2.484 2.484 0 0 1 804.489 42.534 Q 804.75 43.238 804.75 44.25 L 804.75 53.175 A 6.238 6.238 0 0 1 804.685 54.111 Q 804.611 54.599 804.452 54.987 A 2.436 2.436 0 0 1 803.925 55.8 A 2.484 2.484 0 0 1 803.017 56.364 Q 802.313 56.625 801.3 56.625 Z M 198.075 48.375 L 222.6 48.375 L 222.6 49.125 L 197.325 49.125 L 197.325 8.625 L 222.6 8.625 L 222.6 9.375 L 198.075 9.375 L 198.075 28.2 L 216.525 28.2 L 216.525 28.95 L 198.075 28.95 L 198.075 48.375 Z M 332.325 44.25 L 332.325 53.175 A 6.238 6.238 0 0 1 332.26 54.111 Q 332.186 54.599 332.027 54.987 A 2.436 2.436 0 0 1 331.5 55.8 A 2.484 2.484 0 0 1 330.592 56.364 Q 329.888 56.625 328.875 56.625 L 310.575 56.625 A 38.829 38.829 0 0 1 305.455 56.311 Q 299.432 55.507 296.063 52.65 A 12.555 12.555 0 0 1 292.149 46.476 Q 291.526 44.376 291.405 41.835 A 26.354 26.354 0 0 1 291.375 40.575 L 291.375 17.25 A 22.593 22.593 0 0 1 291.821 12.605 Q 292.408 9.818 293.763 7.72 A 11.846 11.846 0 0 1 296.063 5.1 A 14.41 14.41 0 0 1 300.614 2.564 Q 302.734 1.811 305.364 1.452 A 38.66 38.66 0 0 1 310.575 1.125 L 328.875 1.125 A 6.238 6.238 0 0 1 329.81 1.19 Q 330.299 1.265 330.687 1.423 A 2.436 2.436 0 0 1 331.5 1.95 A 2.484 2.484 0 0 1 332.064 2.859 Q 332.325 3.563 332.325 4.575 L 332.325 13.65 A 6.238 6.238 0 0 1 332.26 14.586 Q 332.186 15.074 332.027 15.462 A 2.436 2.436 0 0 1 331.5 16.275 A 2.484 2.484 0 0 1 330.592 16.839 Q 329.888 17.1 328.875 17.1 L 313.8 17.1 A 7.902 7.902 0 0 0 312.741 17.166 Q 312.219 17.237 311.793 17.383 A 3.158 3.158 0 0 0 310.95 17.813 A 2.256 2.256 0 0 0 310.107 19.06 Q 309.975 19.522 309.975 20.1 L 309.975 37.95 Q 309.975 39.525 310.95 40.163 Q 311.925 40.8 313.8 40.8 L 328.875 40.8 A 6.238 6.238 0 0 1 329.81 40.865 Q 330.299 40.94 330.687 41.098 A 2.436 2.436 0 0 1 331.5 41.625 A 2.484 2.484 0 0 1 332.064 42.534 Q 332.325 43.238 332.325 44.25 Z M 79.65 55.875 L 91.8 55.875 Q 92.645 55.875 93.213 55.651 A 1.88 1.88 0 0 0 93.863 55.238 A 1.895 1.895 0 0 0 94.287 54.56 Q 94.4 54.262 94.453 53.89 A 5.075 5.075 0 0 0 94.5 53.175 L 94.5 43.65 L 105.9 28.2 A 26.53 26.53 0 0 0 106.829 26.806 Q 107.738 25.336 108.15 24.15 A 8.26 8.26 0 0 0 108.453 22.974 Q 108.695 21.693 108.74 19.846 A 35.916 35.916 0 0 0 108.75 18.975 L 108.75 4.575 Q 108.75 3.73 108.526 3.162 A 1.88 1.88 0 0 0 108.113 2.513 A 1.895 1.895 0 0 0 107.435 2.088 Q 107.137 1.975 106.765 1.922 A 5.075 5.075 0 0 0 106.05 1.875 L 94.875 1.875 Q 94.03 1.875 93.462 2.099 A 1.88 1.88 0 0 0 92.813 2.513 A 1.895 1.895 0 0 0 92.388 3.191 Q 92.275 3.489 92.222 3.861 A 5.075 5.075 0 0 0 92.175 4.575 L 92.175 16.875 Q 92.175 17.625 92.1 18.45 A 3.129 3.129 0 0 1 91.681 19.741 A 3.843 3.843 0 0 1 91.5 20.025 L 88.05 25.425 Q 87.794 25.886 87.521 26.172 A 1.929 1.929 0 0 1 87.263 26.4 Q 86.85 26.7 86.25 26.7 L 85.5 26.7 A 1.99 1.99 0 0 1 85.015 26.644 A 1.513 1.513 0 0 1 84.488 26.4 Q 84.188 26.183 83.909 25.768 A 4.692 4.692 0 0 1 83.7 25.425 L 80.25 20.025 A 3.485 3.485 0 0 1 79.802 19.158 A 3.012 3.012 0 0 1 79.65 18.45 Q 79.575 17.625 79.575 16.875 L 79.575 4.575 Q 79.575 3.73 79.351 3.162 A 1.88 1.88 0 0 0 78.938 2.513 A 1.895 1.895 0 0 0 78.26 2.088 Q 77.962 1.975 77.59 1.922 A 5.075 5.075 0 0 0 76.875 1.875 L 65.325 1.875 Q 64.48 1.875 63.912 2.099 A 1.88 1.88 0 0 0 63.263 2.513 A 1.895 1.895 0 0 0 62.838 3.191 Q 62.725 3.489 62.672 3.861 A 5.075 5.075 0 0 0 62.625 4.575 L 62.625 18.975 A 33.995 33.995 0 0 0 62.67 20.779 Q 62.783 22.91 63.188 24.15 A 9.313 9.313 0 0 0 63.712 25.407 Q 64.343 26.674 65.475 28.2 L 76.95 43.575 L 76.95 53.175 Q 76.95 54.02 77.174 54.588 A 1.88 1.88 0 0 0 77.588 55.238 A 1.895 1.895 0 0 0 78.266 55.662 Q 78.563 55.775 78.936 55.828 A 5.075 5.075 0 0 0 79.65 55.875 Z M 769.35 55.875 L 801.3 55.875 Q 802.145 55.875 802.713 55.651 A 1.88 1.88 0 0 0 803.363 55.238 A 1.895 1.895 0 0 0 803.787 54.56 Q 803.9 54.262 803.953 53.89 A 5.075 5.075 0 0 0 804 53.175 L 804 44.25 Q 804 43.405 803.776 42.837 A 1.88 1.88 0 0 0 803.363 42.188 A 1.895 1.895 0 0 0 802.685 41.763 Q 802.387 41.65 802.015 41.597 A 5.075 5.075 0 0 0 801.3 41.55 L 794.025 41.55 L 794.025 16.35 L 801.3 16.35 Q 802.145 16.35 802.713 16.126 A 1.88 1.88 0 0 0 803.363 15.713 A 1.895 1.895 0 0 0 803.787 15.035 Q 803.9 14.737 803.953 14.365 A 5.075 5.075 0 0 0 804 13.65 L 804 4.575 Q 804 3.73 803.776 3.162 A 1.88 1.88 0 0 0 803.363 2.513 A 1.895 1.895 0 0 0 802.685 2.088 Q 802.387 1.975 802.015 1.922 A 5.075 5.075 0 0 0 801.3 1.875 L 769.35 1.875 Q 768.505 1.875 767.937 2.099 A 1.88 1.88 0 0 0 767.288 2.513 A 1.895 1.895 0 0 0 766.863 3.191 Q 766.75 3.489 766.697 3.861 A 5.075 5.075 0 0 0 766.65 4.575 L 766.65 13.65 Q 766.65 14.495 766.874 15.063 A 1.88 1.88 0 0 0 767.288 15.713 A 1.895 1.895 0 0 0 767.966 16.137 Q 768.263 16.25 768.636 16.303 A 5.075 5.075 0 0 0 769.35 16.35 L 776.775 16.35 L 776.775 41.55 L 769.35 41.55 Q 768.505 41.55 767.937 41.774 A 1.88 1.88 0 0 0 767.288 42.188 A 1.895 1.895 0 0 0 766.863 42.866 Q 766.75 43.164 766.697 43.536 A 5.075 5.075 0 0 0 766.65 44.25 L 766.65 53.175 Q 766.65 54.02 766.874 54.588 A 1.88 1.88 0 0 0 767.288 55.238 A 1.895 1.895 0 0 0 767.966 55.662 Q 768.263 55.775 768.636 55.828 A 5.075 5.075 0 0 0 769.35 55.875 Z M 628.8 56.625 L 617.175 56.625 A 6.238 6.238 0 0 1 616.24 56.56 Q 615.751 56.486 615.363 56.327 A 2.436 2.436 0 0 1 614.55 55.8 A 2.484 2.484 0 0 1 613.986 54.892 Q 613.725 54.188 613.725 53.175 L 613.725 4.575 A 6.238 6.238 0 0 1 613.79 3.64 Q 613.865 3.151 614.023 2.763 A 2.436 2.436 0 0 1 614.55 1.95 A 2.484 2.484 0 0 1 615.459 1.386 Q 616.163 1.125 617.175 1.125 L 650.625 1.125 A 6.238 6.238 0 0 1 651.56 1.19 Q 652.049 1.265 652.437 1.423 A 2.436 2.436 0 0 1 653.25 1.95 A 2.484 2.484 0 0 1 653.814 2.859 Q 654.075 3.563 654.075 4.575 L 654.075 13.5 A 6.238 6.238 0 0 1 654.01 14.436 Q 653.936 14.924 653.777 15.312 A 2.436 2.436 0 0 1 653.25 16.125 A 2.484 2.484 0 0 1 652.342 16.689 Q 651.638 16.95 650.625 16.95 L 632.25 16.95 L 632.25 23.25 L 644.55 23.25 A 6.238 6.238 0 0 1 645.485 23.315 Q 645.974 23.39 646.362 23.548 A 2.436 2.436 0 0 1 647.175 24.075 A 2.484 2.484 0 0 1 647.739 24.984 Q 648 25.688 648 26.7 L 648 35.7 A 6.238 6.238 0 0 1 647.935 36.636 Q 647.861 37.124 647.702 37.512 A 2.436 2.436 0 0 1 647.175 38.325 A 2.484 2.484 0 0 1 646.267 38.889 Q 645.563 39.15 644.55 39.15 L 632.25 39.15 L 632.25 53.175 A 6.238 6.238 0 0 1 632.185 54.111 Q 632.111 54.599 631.952 54.987 A 2.436 2.436 0 0 1 631.425 55.8 A 2.484 2.484 0 0 1 630.517 56.364 Q 629.813 56.625 628.8 56.625 Z M 310.575 55.875 L 328.875 55.875 Q 329.72 55.875 330.288 55.651 A 1.88 1.88 0 0 0 330.938 55.238 A 1.895 1.895 0 0 0 331.362 54.56 Q 331.475 54.262 331.528 53.89 A 5.075 5.075 0 0 0 331.575 53.175 L 331.575 44.25 Q 331.575 43.405 331.351 42.837 A 1.88 1.88 0 0 0 330.938 42.188 A 1.895 1.895 0 0 0 330.26 41.763 Q 329.962 41.65 329.59 41.597 A 5.075 5.075 0 0 0 328.875 41.55 L 313.8 41.55 A 10.041 10.041 0 0 1 312.587 41.482 Q 311.159 41.308 310.35 40.688 A 2.716 2.716 0 0 1 309.397 39.26 Q 309.259 38.795 309.232 38.23 A 5.877 5.877 0 0 1 309.225 37.95 L 309.225 20.1 A 4.981 4.981 0 0 1 309.335 19.02 Q 309.495 18.298 309.89 17.771 A 2.862 2.862 0 0 1 310.35 17.288 Q 311.475 16.35 313.8 16.35 L 328.875 16.35 Q 329.72 16.35 330.288 16.126 A 1.88 1.88 0 0 0 330.938 15.713 A 1.895 1.895 0 0 0 331.362 15.035 Q 331.475 14.737 331.528 14.365 A 5.075 5.075 0 0 0 331.575 13.65 L 331.575 4.575 Q 331.575 3.73 331.351 3.162 A 1.88 1.88 0 0 0 330.938 2.513 A 1.895 1.895 0 0 0 330.26 2.088 Q 329.962 1.975 329.59 1.922 A 5.075 5.075 0 0 0 328.875 1.875 L 310.575 1.875 A 37.221 37.221 0 0 0 305.684 2.175 Q 299.924 2.94 296.663 5.663 A 11.942 11.942 0 0 0 292.874 11.575 Q 292.277 13.572 292.156 15.99 A 25.169 25.169 0 0 0 292.125 17.25 L 292.125 40.575 Q 292.125 48.375 296.663 52.125 Q 299.91 54.809 305.635 55.572 A 37.496 37.496 0 0 0 310.575 55.875 Z M 617.175 55.875 L 628.8 55.875 Q 629.645 55.875 630.213 55.651 A 1.88 1.88 0 0 0 630.863 55.238 A 1.895 1.895 0 0 0 631.287 54.56 Q 631.4 54.262 631.453 53.89 A 5.075 5.075 0 0 0 631.5 53.175 L 631.5 38.4 L 644.55 38.4 Q 645.395 38.4 645.963 38.176 A 1.88 1.88 0 0 0 646.613 37.763 A 1.895 1.895 0 0 0 647.037 37.085 Q 647.15 36.787 647.203 36.415 A 5.075 5.075 0 0 0 647.25 35.7 L 647.25 26.7 Q 647.25 25.855 647.026 25.287 A 1.88 1.88 0 0 0 646.613 24.638 A 1.895 1.895 0 0 0 645.935 24.213 Q 645.637 24.1 645.265 24.047 A 5.075 5.075 0 0 0 644.55 24 L 631.5 24 L 631.5 16.2 L 650.625 16.2 Q 651.47 16.2 652.038 15.976 A 1.88 1.88 0 0 0 652.688 15.563 A 1.895 1.895 0 0 0 653.112 14.885 Q 653.225 14.587 653.278 14.215 A 5.075 5.075 0 0 0 653.325 13.5 L 653.325 4.575 Q 653.325 3.73 653.101 3.162 A 1.88 1.88 0 0 0 652.688 2.513 A 1.895 1.895 0 0 0 652.01 2.088 Q 651.712 1.975 651.34 1.922 A 5.075 5.075 0 0 0 650.625 1.875 L 617.175 1.875 Q 616.33 1.875 615.762 2.099 A 1.88 1.88 0 0 0 615.113 2.513 A 1.895 1.895 0 0 0 614.688 3.191 Q 614.575 3.489 614.522 3.861 A 5.075 5.075 0 0 0 614.475 4.575 L 614.475 53.175 Q 614.475 54.02 614.699 54.588 A 1.88 1.88 0 0 0 615.113 55.238 A 1.895 1.895 0 0 0 615.791 55.662 Q 616.088 55.775 616.461 55.828 A 5.075 5.075 0 0 0 617.175 55.875 Z M 250.8 56.625 L 239.775 56.625 A 6.238 6.238 0 0 1 238.84 56.56 Q 238.351 56.486 237.963 56.327 A 2.436 2.436 0 0 1 237.15 55.8 A 2.484 2.484 0 0 1 236.586 54.892 Q 236.325 54.188 236.325 53.175 L 236.325 33.375 A 18.179 18.179 0 0 1 236.461 31.219 Q 236.637 29.754 237.038 28.088 A 39.776 39.776 0 0 1 237.693 25.713 Q 238.341 23.606 239.325 21.075 L 245.85 4.125 A 5.569 5.569 0 0 1 246.311 3.085 Q 246.774 2.289 247.463 1.838 A 4.011 4.011 0 0 1 248.633 1.328 Q 249.154 1.188 249.77 1.145 A 8.239 8.239 0 0 1 250.35 1.125 L 270.525 1.125 Q 272.25 1.125 273.338 1.838 A 3.735 3.735 0 0 1 274.489 3.055 A 5.314 5.314 0 0 1 274.95 4.05 L 281.475 21.075 Q 283.05 25.125 283.763 28.088 A 28.842 28.842 0 0 1 284.243 30.516 Q 284.475 32.049 284.475 33.375 L 284.475 53.175 A 6.238 6.238 0 0 1 284.41 54.111 Q 284.336 54.599 284.177 54.987 A 2.436 2.436 0 0 1 283.65 55.8 A 2.484 2.484 0 0 1 282.742 56.364 Q 282.038 56.625 281.025 56.625 L 269.7 56.625 A 6.47 6.47 0 0 1 268.679 56.55 Q 267.56 56.371 266.925 55.763 Q 266.158 55.028 266.045 53.666 A 5.921 5.921 0 0 1 266.025 53.175 L 266.025 43.425 L 254.25 43.425 L 254.25 53.175 A 6.238 6.238 0 0 1 254.185 54.111 Q 254.111 54.599 253.952 54.987 A 2.436 2.436 0 0 1 253.425 55.8 A 2.484 2.484 0 0 1 252.517 56.364 Q 251.813 56.625 250.8 56.625 Z M 253.5 53.175 L 253.5 42.675 L 266.775 42.675 L 266.775 53.175 A 4.512 4.512 0 0 0 266.831 53.914 Q 266.897 54.306 267.038 54.615 A 1.859 1.859 0 0 0 267.488 55.238 A 2.179 2.179 0 0 0 268.213 55.656 Q 268.536 55.773 268.936 55.827 A 5.672 5.672 0 0 0 269.7 55.875 L 281.025 55.875 Q 281.87 55.875 282.438 55.651 A 1.88 1.88 0 0 0 283.088 55.238 A 1.895 1.895 0 0 0 283.512 54.56 Q 283.625 54.262 283.678 53.89 A 5.075 5.075 0 0 0 283.725 53.175 L 283.725 33.375 Q 283.725 31.443 283.2 29.013 A 32.111 32.111 0 0 0 283.013 28.2 Q 282.467 25.961 281.46 23.15 A 81.893 81.893 0 0 0 280.8 21.375 L 274.275 4.35 A 4.385 4.385 0 0 0 273.839 3.441 A 3.131 3.131 0 0 0 272.888 2.475 Q 271.95 1.875 270.525 1.875 L 250.35 1.875 Q 249.18 1.875 248.353 2.24 A 3.238 3.238 0 0 0 247.913 2.475 Q 246.975 3.075 246.525 4.35 L 240 21.375 Q 238.5 25.275 237.788 28.2 A 28.72 28.72 0 0 0 237.326 30.465 Q 237.146 31.597 237.095 32.605 A 15.321 15.321 0 0 0 237.075 33.375 L 237.075 53.175 Q 237.075 54.02 237.299 54.588 A 1.88 1.88 0 0 0 237.713 55.238 A 1.895 1.895 0 0 0 238.391 55.662 Q 238.688 55.775 239.061 55.828 A 5.075 5.075 0 0 0 239.775 55.875 L 250.8 55.875 Q 251.645 55.875 252.213 55.651 A 1.88 1.88 0 0 0 252.863 55.238 A 1.895 1.895 0 0 0 253.287 54.56 Q 253.4 54.262 253.453 53.89 A 5.075 5.075 0 0 0 253.5 53.175 Z M 365.55 56.625 L 353.4 56.625 A 6.238 6.238 0 0 1 352.465 56.56 Q 351.976 56.486 351.588 56.327 A 2.436 2.436 0 0 1 350.775 55.8 A 2.484 2.484 0 0 1 350.211 54.892 Q 349.95 54.188 349.95 53.175 L 349.95 17.1 L 339.675 17.1 A 6.238 6.238 0 0 1 338.74 17.035 Q 338.251 16.961 337.863 16.802 A 2.436 2.436 0 0 1 337.05 16.275 A 2.484 2.484 0 0 1 336.486 15.367 Q 336.225 14.663 336.225 13.65 L 336.225 4.575 A 6.238 6.238 0 0 1 336.29 3.64 Q 336.365 3.151 336.523 2.763 A 2.436 2.436 0 0 1 337.05 1.95 A 2.484 2.484 0 0 1 337.959 1.386 Q 338.663 1.125 339.675 1.125 L 379.275 1.125 A 6.238 6.238 0 0 1 380.21 1.19 Q 380.699 1.265 381.087 1.423 A 2.436 2.436 0 0 1 381.9 1.95 A 2.484 2.484 0 0 1 382.464 2.859 Q 382.725 3.563 382.725 4.575 L 382.725 13.65 A 6.238 6.238 0 0 1 382.66 14.586 Q 382.586 15.074 382.427 15.462 A 2.436 2.436 0 0 1 381.9 16.275 A 2.484 2.484 0 0 1 380.992 16.839 Q 380.288 17.1 379.275 17.1 L 369 17.1 L 369 53.175 A 6.238 6.238 0 0 1 368.935 54.111 Q 368.861 54.599 368.702 54.987 A 2.436 2.436 0 0 1 368.175 55.8 A 2.484 2.484 0 0 1 367.267 56.364 Q 366.563 56.625 365.55 56.625 Z M 590.775 56.625 L 578.625 56.625 A 6.238 6.238 0 0 1 577.69 56.56 Q 577.201 56.486 576.813 56.327 A 2.436 2.436 0 0 1 576 55.8 A 2.484 2.484 0 0 1 575.436 54.892 Q 575.175 54.188 575.175 53.175 L 575.175 17.1 L 564.9 17.1 A 6.238 6.238 0 0 1 563.965 17.035 Q 563.476 16.961 563.088 16.802 A 2.436 2.436 0 0 1 562.275 16.275 A 2.484 2.484 0 0 1 561.711 15.367 Q 561.45 14.663 561.45 13.65 L 561.45 4.575 A 6.238 6.238 0 0 1 561.515 3.64 Q 561.59 3.151 561.748 2.763 A 2.436 2.436 0 0 1 562.275 1.95 A 2.484 2.484 0 0 1 563.184 1.386 Q 563.888 1.125 564.9 1.125 L 604.5 1.125 A 6.238 6.238 0 0 1 605.435 1.19 Q 605.924 1.265 606.312 1.423 A 2.436 2.436 0 0 1 607.125 1.95 A 2.484 2.484 0 0 1 607.689 2.859 Q 607.95 3.563 607.95 4.575 L 607.95 13.65 A 6.238 6.238 0 0 1 607.885 14.586 Q 607.811 15.074 607.652 15.462 A 2.436 2.436 0 0 1 607.125 16.275 A 2.484 2.484 0 0 1 606.217 16.839 Q 605.513 17.1 604.5 17.1 L 594.225 17.1 L 594.225 53.175 A 6.238 6.238 0 0 1 594.16 54.111 Q 594.086 54.599 593.927 54.987 A 2.436 2.436 0 0 1 593.4 55.8 A 2.484 2.484 0 0 1 592.492 56.364 Q 591.788 56.625 590.775 56.625 Z M 353.4 55.875 L 365.55 55.875 Q 366.395 55.875 366.963 55.651 A 1.88 1.88 0 0 0 367.613 55.238 A 1.895 1.895 0 0 0 368.037 54.56 Q 368.15 54.262 368.203 53.89 A 5.075 5.075 0 0 0 368.25 53.175 L 368.25 16.35 L 379.275 16.35 Q 380.12 16.35 380.688 16.126 A 1.88 1.88 0 0 0 381.338 15.713 A 1.895 1.895 0 0 0 381.762 15.035 Q 381.875 14.737 381.928 14.365 A 5.075 5.075 0 0 0 381.975 13.65 L 381.975 4.575 Q 381.975 3.73 381.751 3.162 A 1.88 1.88 0 0 0 381.338 2.513 A 1.895 1.895 0 0 0 380.66 2.088 Q 380.362 1.975 379.99 1.922 A 5.075 5.075 0 0 0 379.275 1.875 L 339.675 1.875 Q 338.83 1.875 338.262 2.099 A 1.88 1.88 0 0 0 337.613 2.513 A 1.895 1.895 0 0 0 337.188 3.191 Q 337.075 3.489 337.022 3.861 A 5.075 5.075 0 0 0 336.975 4.575 L 336.975 13.65 Q 336.975 14.495 337.199 15.063 A 1.88 1.88 0 0 0 337.613 15.713 A 1.895 1.895 0 0 0 338.291 16.137 Q 338.588 16.25 338.961 16.303 A 5.075 5.075 0 0 0 339.675 16.35 L 350.7 16.35 L 350.7 53.175 Q 350.7 54.02 350.924 54.588 A 1.88 1.88 0 0 0 351.338 55.238 A 1.895 1.895 0 0 0 352.016 55.662 Q 352.313 55.775 352.686 55.828 A 5.075 5.075 0 0 0 353.4 55.875 Z M 578.625 55.875 L 590.775 55.875 Q 591.62 55.875 592.188 55.651 A 1.88 1.88 0 0 0 592.838 55.238 A 1.895 1.895 0 0 0 593.262 54.56 Q 593.375 54.262 593.428 53.89 A 5.075 5.075 0 0 0 593.475 53.175 L 593.475 16.35 L 604.5 16.35 Q 605.345 16.35 605.913 16.126 A 1.88 1.88 0 0 0 606.563 15.713 A 1.895 1.895 0 0 0 606.987 15.035 Q 607.1 14.737 607.153 14.365 A 5.075 5.075 0 0 0 607.2 13.65 L 607.2 4.575 Q 607.2 3.73 606.976 3.162 A 1.88 1.88 0 0 0 606.563 2.513 A 1.895 1.895 0 0 0 605.885 2.088 Q 605.587 1.975 605.215 1.922 A 5.075 5.075 0 0 0 604.5 1.875 L 564.9 1.875 Q 564.055 1.875 563.487 2.099 A 1.88 1.88 0 0 0 562.838 2.513 A 1.895 1.895 0 0 0 562.413 3.191 Q 562.3 3.489 562.247 3.861 A 5.075 5.075 0 0 0 562.2 4.575 L 562.2 13.65 Q 562.2 14.495 562.424 15.063 A 1.88 1.88 0 0 0 562.838 15.713 A 1.895 1.895 0 0 0 563.516 16.137 Q 563.813 16.25 564.186 16.303 A 5.075 5.075 0 0 0 564.9 16.35 L 575.925 16.35 L 575.925 53.175 Q 575.925 54.02 576.149 54.588 A 1.88 1.88 0 0 0 576.563 55.238 A 1.895 1.895 0 0 0 577.241 55.662 Q 577.538 55.775 577.911 55.828 A 5.075 5.075 0 0 0 578.625 55.875 Z M 419.7 56.625 L 408.075 56.625 A 6.238 6.238 0 0 1 407.14 56.56 Q 406.651 56.486 406.263 56.327 A 2.436 2.436 0 0 1 405.45 55.8 A 2.484 2.484 0 0 1 404.886 54.892 Q 404.625 54.188 404.625 53.175 L 404.625 4.575 A 6.238 6.238 0 0 1 404.69 3.64 Q 404.765 3.151 404.923 2.763 A 2.436 2.436 0 0 1 405.45 1.95 A 2.484 2.484 0 0 1 406.359 1.386 Q 407.063 1.125 408.075 1.125 L 431.025 1.125 A 41.862 41.862 0 0 1 434.776 1.283 Q 436.604 1.448 438.168 1.785 A 20.262 20.262 0 0 1 439.95 2.25 Q 443.55 3.375 445.65 5.4 Q 447.75 7.425 448.613 10.275 Q 449.475 13.125 449.475 16.5 L 449.475 26.1 A 23.168 23.168 0 0 1 449.171 29.923 A 19.234 19.234 0 0 1 448.613 32.325 Q 447.75 35.175 445.65 37.2 Q 443.747 39.035 440.612 40.131 A 20.855 20.855 0 0 1 439.95 40.35 A 22.194 22.194 0 0 1 436.74 41.079 Q 435.144 41.326 433.311 41.419 A 45.183 45.183 0 0 1 431.025 41.475 L 423.15 41.475 L 423.15 53.175 A 6.238 6.238 0 0 1 423.085 54.111 Q 423.011 54.599 422.852 54.987 A 2.436 2.436 0 0 1 422.325 55.8 A 2.484 2.484 0 0 1 421.417 56.364 Q 420.713 56.625 419.7 56.625 Z M 503.025 16.125 L 503.025 41.7 Q 503.025 45.225 502.05 48.188 A 10.393 10.393 0 0 1 499.052 52.712 A 12.801 12.801 0 0 1 498.413 53.25 A 14.322 14.322 0 0 1 495.915 54.808 Q 494.622 55.451 493.05 55.971 A 30.195 30.195 0 0 1 491.063 56.55 Q 487.673 57.418 482.891 57.658 A 77.186 77.186 0 0 1 479.025 57.75 A 74.285 74.285 0 0 1 474.287 57.608 Q 472.043 57.465 470.123 57.175 A 31.813 31.813 0 0 1 466.988 56.55 Q 463.52 55.662 461.161 54.282 A 13.293 13.293 0 0 1 459.638 53.25 A 11.519 11.519 0 0 1 457.084 50.493 A 10.339 10.339 0 0 1 455.963 48.188 A 18.93 18.93 0 0 1 455.035 43.691 A 22.955 22.955 0 0 1 454.95 41.7 L 454.95 16.125 A 21.444 21.444 0 0 1 455.326 12.038 A 18.016 18.016 0 0 1 455.963 9.638 Q 456.975 6.675 459.638 4.538 A 14.252 14.252 0 0 1 462.244 2.901 Q 463.515 2.272 465.05 1.765 A 29.534 29.534 0 0 1 466.988 1.2 Q 470.377 0.332 475.159 0.092 A 77.186 77.186 0 0 1 479.025 0 A 74.285 74.285 0 0 1 483.764 0.142 Q 486.007 0.286 487.927 0.575 A 31.813 31.813 0 0 1 491.063 1.2 A 27.329 27.329 0 0 1 494.17 2.184 Q 496.707 3.168 498.413 4.538 Q 501.075 6.675 502.05 9.638 A 19.486 19.486 0 0 1 502.93 13.977 A 23.708 23.708 0 0 1 503.025 16.125 Z M 706.95 16.125 L 706.95 41.7 Q 706.95 45.225 705.975 48.188 A 10.393 10.393 0 0 1 702.977 52.712 A 12.801 12.801 0 0 1 702.338 53.25 A 14.322 14.322 0 0 1 699.84 54.808 Q 698.547 55.451 696.975 55.971 A 30.195 30.195 0 0 1 694.988 56.55 Q 691.598 57.418 686.816 57.658 A 77.186 77.186 0 0 1 682.95 57.75 A 74.285 74.285 0 0 1 678.212 57.608 Q 675.968 57.465 674.048 57.175 A 31.813 31.813 0 0 1 670.913 56.55 Q 667.445 55.662 665.086 54.282 A 13.293 13.293 0 0 1 663.563 53.25 A 11.519 11.519 0 0 1 661.009 50.493 A 10.339 10.339 0 0 1 659.888 48.188 A 18.93 18.93 0 0 1 658.96 43.691 A 22.955 22.955 0 0 1 658.875 41.7 L 658.875 16.125 A 21.444 21.444 0 0 1 659.251 12.038 A 18.016 18.016 0 0 1 659.888 9.638 Q 660.9 6.675 663.563 4.538 A 14.252 14.252 0 0 1 666.169 2.901 Q 667.44 2.272 668.975 1.765 A 29.534 29.534 0 0 1 670.913 1.2 Q 674.302 0.332 679.084 0.092 A 77.186 77.186 0 0 1 682.95 0 A 74.285 74.285 0 0 1 687.689 0.142 Q 689.932 0.286 691.852 0.575 A 31.813 31.813 0 0 1 694.988 1.2 A 27.329 27.329 0 0 1 698.095 2.184 Q 700.632 3.168 702.338 4.538 Q 705 6.675 705.975 9.638 A 19.486 19.486 0 0 1 706.855 13.977 A 23.708 23.708 0 0 1 706.95 16.125 Z M 859.725 16.125 L 859.725 41.7 Q 859.725 45.225 858.75 48.188 A 10.393 10.393 0 0 1 855.752 52.712 A 12.801 12.801 0 0 1 855.113 53.25 A 14.322 14.322 0 0 1 852.615 54.808 Q 851.322 55.451 849.75 55.971 A 30.195 30.195 0 0 1 847.763 56.55 Q 844.373 57.418 839.591 57.658 A 77.186 77.186 0 0 1 835.725 57.75 A 74.285 74.285 0 0 1 830.987 57.608 Q 828.743 57.465 826.823 57.175 A 31.813 31.813 0 0 1 823.688 56.55 Q 820.22 55.662 817.861 54.282 A 13.293 13.293 0 0 1 816.338 53.25 A 11.519 11.519 0 0 1 813.784 50.493 A 10.339 10.339 0 0 1 812.663 48.188 A 18.93 18.93 0 0 1 811.735 43.691 A 22.955 22.955 0 0 1 811.65 41.7 L 811.65 16.125 A 21.444 21.444 0 0 1 812.026 12.038 A 18.016 18.016 0 0 1 812.663 9.638 Q 813.675 6.675 816.338 4.538 A 14.252 14.252 0 0 1 818.944 2.901 Q 820.215 2.272 821.75 1.765 A 29.534 29.534 0 0 1 823.688 1.2 Q 827.077 0.332 831.859 0.092 A 77.186 77.186 0 0 1 835.725 0 A 74.285 74.285 0 0 1 840.464 0.142 Q 842.707 0.286 844.627 0.575 A 31.813 31.813 0 0 1 847.763 1.2 A 27.329 27.329 0 0 1 850.87 2.184 Q 853.407 3.168 855.113 4.538 Q 857.775 6.675 858.75 9.638 A 19.486 19.486 0 0 1 859.63 13.977 A 23.708 23.708 0 0 1 859.725 16.125 Z M 408.075 55.875 L 419.7 55.875 Q 420.545 55.875 421.113 55.651 A 1.88 1.88 0 0 0 421.763 55.238 A 1.895 1.895 0 0 0 422.187 54.56 Q 422.3 54.262 422.353 53.89 A 5.075 5.075 0 0 0 422.4 53.175 L 422.4 40.725 L 431.025 40.725 Q 439.459 40.725 443.483 37.957 A 8.891 8.891 0 0 0 444.975 36.675 A 13.828 13.828 0 0 0 448.428 29.575 A 19.502 19.502 0 0 0 448.725 26.1 L 448.725 16.5 Q 448.725 9.975 444.975 5.925 Q 441.647 2.331 433.241 1.927 A 46.112 46.112 0 0 0 431.025 1.875 L 408.075 1.875 Q 407.23 1.875 406.662 2.099 A 1.88 1.88 0 0 0 406.013 2.513 A 1.895 1.895 0 0 0 405.588 3.191 Q 405.475 3.489 405.422 3.861 A 5.075 5.075 0 0 0 405.375 4.575 L 405.375 53.175 Q 405.375 54.02 405.599 54.588 A 1.88 1.88 0 0 0 406.013 55.238 A 1.895 1.895 0 0 0 406.691 55.662 Q 406.988 55.775 407.361 55.828 A 5.075 5.075 0 0 0 408.075 55.875 Z M 502.275 41.7 L 502.275 16.125 Q 502.275 12.675 501.263 9.863 A 10.42 10.42 0 0 0 498.437 5.681 A 12.883 12.883 0 0 0 497.663 5.025 A 13.757 13.757 0 0 0 495.238 3.528 Q 493.232 2.543 490.538 1.875 A 33.337 33.337 0 0 0 486.792 1.19 Q 484.875 0.942 482.657 0.834 A 74.701 74.701 0 0 0 479.025 0.75 Q 474.005 0.75 470.228 1.333 A 31.955 31.955 0 0 0 467.475 1.875 A 27.224 27.224 0 0 0 464.565 2.755 Q 463.088 3.299 461.898 3.973 A 12.781 12.781 0 0 0 460.313 5.025 A 11.533 11.533 0 0 0 457.913 7.533 A 10.053 10.053 0 0 0 456.713 9.863 A 17.052 17.052 0 0 0 455.822 13.803 A 21.417 21.417 0 0 0 455.7 16.125 L 455.7 41.7 Q 455.7 45.15 456.713 47.963 A 10.239 10.239 0 0 0 459.616 52.187 A 12.594 12.594 0 0 0 460.313 52.763 A 13.859 13.859 0 0 0 462.743 54.235 Q 463.995 54.839 465.517 55.325 A 29.867 29.867 0 0 0 467.475 55.875 A 33.932 33.932 0 0 0 471.244 56.561 Q 473.169 56.808 475.39 56.916 A 74.876 74.876 0 0 0 479.025 57 Q 486 57 490.538 55.875 Q 495.075 54.75 497.663 52.763 A 11.21 11.21 0 0 0 500.102 50.227 A 9.906 9.906 0 0 0 501.263 47.963 A 17.052 17.052 0 0 0 502.153 44.022 A 21.417 21.417 0 0 0 502.275 41.7 Z M 706.2 41.7 L 706.2 16.125 Q 706.2 12.675 705.188 9.863 A 10.42 10.42 0 0 0 702.362 5.681 A 12.883 12.883 0 0 0 701.588 5.025 A 13.757 13.757 0 0 0 699.163 3.528 Q 697.157 2.543 694.463 1.875 A 33.337 33.337 0 0 0 690.717 1.19 Q 688.8 0.942 686.582 0.834 A 74.701 74.701 0 0 0 682.95 0.75 Q 677.93 0.75 674.153 1.333 A 31.955 31.955 0 0 0 671.4 1.875 A 27.224 27.224 0 0 0 668.49 2.755 Q 667.013 3.299 665.823 3.973 A 12.781 12.781 0 0 0 664.238 5.025 A 11.533 11.533 0 0 0 661.838 7.533 A 10.053 10.053 0 0 0 660.638 9.863 A 17.052 17.052 0 0 0 659.747 13.803 A 21.417 21.417 0 0 0 659.625 16.125 L 659.625 41.7 Q 659.625 45.15 660.638 47.963 A 10.239 10.239 0 0 0 663.541 52.187 A 12.594 12.594 0 0 0 664.238 52.763 A 13.859 13.859 0 0 0 666.668 54.235 Q 667.92 54.839 669.442 55.325 A 29.867 29.867 0 0 0 671.4 55.875 A 33.932 33.932 0 0 0 675.169 56.561 Q 677.094 56.808 679.315 56.916 A 74.876 74.876 0 0 0 682.95 57 Q 689.925 57 694.463 55.875 Q 699 54.75 701.588 52.763 A 11.21 11.21 0 0 0 704.027 50.227 A 9.906 9.906 0 0 0 705.188 47.963 A 17.052 17.052 0 0 0 706.078 44.022 A 21.417 21.417 0 0 0 706.2 41.7 Z M 858.975 41.7 L 858.975 16.125 Q 858.975 12.675 857.963 9.863 A 10.42 10.42 0 0 0 855.137 5.681 A 12.883 12.883 0 0 0 854.363 5.025 A 13.757 13.757 0 0 0 851.938 3.528 Q 849.932 2.543 847.238 1.875 A 33.337 33.337 0 0 0 843.492 1.19 Q 841.575 0.942 839.357 0.834 A 74.701 74.701 0 0 0 835.725 0.75 Q 830.705 0.75 826.928 1.333 A 31.955 31.955 0 0 0 824.175 1.875 A 27.224 27.224 0 0 0 821.265 2.755 Q 819.788 3.299 818.598 3.973 A 12.781 12.781 0 0 0 817.013 5.025 A 11.533 11.533 0 0 0 814.613 7.533 A 10.053 10.053 0 0 0 813.413 9.863 A 17.052 17.052 0 0 0 812.522 13.803 A 21.417 21.417 0 0 0 812.4 16.125 L 812.4 41.7 Q 812.4 45.15 813.413 47.963 A 10.239 10.239 0 0 0 816.316 52.187 A 12.594 12.594 0 0 0 817.013 52.763 A 13.859 13.859 0 0 0 819.443 54.235 Q 820.695 54.839 822.217 55.325 A 29.867 29.867 0 0 0 824.175 55.875 A 33.932 33.932 0 0 0 827.944 56.561 Q 829.869 56.808 832.09 56.916 A 74.876 74.876 0 0 0 835.725 57 Q 842.7 57 847.238 55.875 Q 851.775 54.75 854.363 52.763 A 11.21 11.21 0 0 0 856.802 50.227 A 9.906 9.906 0 0 0 857.963 47.963 A 17.052 17.052 0 0 0 858.853 44.022 A 21.417 21.417 0 0 0 858.975 41.7 Z M 797.25 48.375 L 797.25 49.125 L 773.4 49.125 L 773.4 48.375 L 785.025 48.375 L 785.025 9.375 L 773.4 9.375 L 773.4 8.625 L 797.25 8.625 L 797.25 9.375 L 785.775 9.375 L 785.775 48.375 L 797.25 48.375 Z M 142.275 31.725 L 142.275 49.125 L 141.525 49.125 L 141.525 8.625 L 158.625 8.625 Q 161.65 8.625 163.587 9.804 A 6.216 6.216 0 0 1 165.075 11.063 A 8.583 8.583 0 0 1 167.073 15.613 A 11.565 11.565 0 0 1 167.175 17.175 L 167.175 22.35 Q 167.175 24.902 166.683 26.777 A 10.061 10.061 0 0 1 166.275 28.013 A 4.894 4.894 0 0 1 163.86 30.578 A 7.332 7.332 0 0 1 162.675 31.05 L 163.5 31.05 A 16.168 16.168 0 0 1 166.012 31.232 Q 167.324 31.439 168.371 31.881 A 6.744 6.744 0 0 1 170.325 33.113 A 6.648 6.648 0 0 1 172.259 36.409 Q 172.575 37.613 172.575 39.075 L 172.575 49.125 L 171.825 49.125 L 171.825 39.075 A 10.599 10.599 0 0 0 171.627 36.958 Q 171.192 34.826 169.8 33.563 A 6.182 6.182 0 0 0 167.714 32.348 Q 166.797 32.017 165.665 31.862 A 16 16 0 0 0 163.5 31.725 L 142.275 31.725 Z M 520.65 31.725 L 520.65 49.125 L 519.9 49.125 L 519.9 8.625 L 537 8.625 Q 540.025 8.625 541.962 9.804 A 6.216 6.216 0 0 1 543.45 11.063 A 8.583 8.583 0 0 1 545.448 15.613 A 11.565 11.565 0 0 1 545.55 17.175 L 545.55 22.35 Q 545.55 24.902 545.058 26.777 A 10.061 10.061 0 0 1 544.65 28.013 A 4.894 4.894 0 0 1 542.235 30.578 A 7.332 7.332 0 0 1 541.05 31.05 L 541.875 31.05 A 16.168 16.168 0 0 1 544.387 31.232 Q 545.699 31.439 546.746 31.881 A 6.744 6.744 0 0 1 548.7 33.113 A 6.648 6.648 0 0 1 550.634 36.409 Q 550.95 37.613 550.95 39.075 L 550.95 49.125 L 550.2 49.125 L 550.2 39.075 A 10.599 10.599 0 0 0 550.002 36.958 Q 549.567 34.826 548.175 33.563 A 6.182 6.182 0 0 0 546.089 32.348 Q 545.172 32.017 544.04 31.862 A 16 16 0 0 0 541.875 31.725 L 520.65 31.725 Z M 751.5 49.125 L 723.9 49.125 L 723.9 8.625 L 724.65 8.625 L 724.65 48.375 L 750.75 48.375 L 750.75 33.6 L 751.5 33.6 L 751.5 49.125 Z M 86.625 36.3 L 86.1 36.3 L 86.1 49.125 L 85.35 49.125 L 85.35 36.3 L 84.6 36.3 A 6.235 6.235 0 0 1 82.76 36.036 A 5.524 5.524 0 0 1 81.638 35.55 Q 80.527 34.916 79.497 33.636 A 12.451 12.451 0 0 1 79.125 33.15 L 71.85 23.025 A 5.148 5.148 0 0 1 70.916 20.724 A 6.207 6.207 0 0 1 70.875 20.4 Q 70.725 18.9 70.725 17.25 L 70.725 8.625 L 71.475 8.625 L 71.475 17.25 A 29.559 29.559 0 0 0 71.534 19.146 A 24.644 24.644 0 0 0 71.625 20.213 Q 71.775 21.6 72.525 22.725 L 79.8 32.85 A 7.124 7.124 0 0 0 80.625 33.903 Q 81.18 34.482 81.813 34.829 A 4.27 4.27 0 0 0 82.05 34.95 A 6.336 6.336 0 0 0 83.604 35.459 A 5.499 5.499 0 0 0 84.6 35.55 L 86.625 35.55 A 5.499 5.499 0 0 0 88.421 35.262 A 5.051 5.051 0 0 0 89.213 34.913 A 5.978 5.978 0 0 0 90.223 34.204 Q 90.666 33.824 91.103 33.327 A 11.683 11.683 0 0 0 91.5 32.85 L 99 22.725 Q 99.75 21.75 99.9 20.288 A 29.391 29.391 0 0 0 100.048 17.642 A 32.638 32.638 0 0 0 100.05 17.25 L 100.05 8.625 L 100.8 8.625 L 100.8 17.25 A 43.448 43.448 0 0 1 100.756 19.239 A 36.393 36.393 0 0 1 100.688 20.363 Q 100.575 21.825 99.675 23.025 L 92.175 33.15 A 11.18 11.18 0 0 1 91.259 34.261 Q 90.732 34.819 90.184 35.214 A 5.875 5.875 0 0 1 89.663 35.55 A 5.674 5.674 0 0 1 87.563 36.241 A 7.21 7.21 0 0 1 86.625 36.3 Z M 312.225 48.375 L 324.75 48.375 L 324.75 49.125 L 312.225 49.125 Q 304.95 49.125 302.588 46.875 Q 300.225 44.625 300.225 39.45 L 300.225 18.45 A 18.581 18.581 0 0 1 300.405 15.768 Q 300.881 12.51 302.625 10.875 A 6.056 6.056 0 0 1 304.473 9.738 Q 307.163 8.625 312.225 8.625 L 324.75 8.625 L 324.75 9.375 L 312.225 9.375 A 33.102 33.102 0 0 0 309.279 9.496 Q 306.396 9.755 304.66 10.568 A 5.633 5.633 0 0 0 303.3 11.438 Q 300.975 13.5 300.975 18.45 L 300.975 39.45 A 16.682 16.682 0 0 0 301.134 41.839 Q 301.573 44.863 303.225 46.35 Q 305 47.948 309.575 48.285 A 36.176 36.176 0 0 0 312.225 48.375 Z M 623.4 49.125 L 622.65 49.125 L 622.65 8.625 L 646.575 8.625 L 646.575 9.375 L 623.4 9.375 L 623.4 30.825 L 640.5 30.825 L 640.5 31.575 L 623.4 31.575 L 623.4 49.125 Z M 275.775 49.125 L 275.025 49.125 L 275.025 36.225 L 245.775 36.225 L 245.775 49.125 L 245.025 49.125 L 245.025 33.15 A 22.826 22.826 0 0 1 245.132 30.894 A 18.021 18.021 0 0 1 245.363 29.288 Q 245.7 27.525 246.3 25.875 L 251.1 13.575 A 19.016 19.016 0 0 1 251.865 11.867 Q 252.384 10.852 252.975 10.05 A 3.209 3.209 0 0 1 254.51 8.94 Q 255.377 8.625 256.575 8.625 L 263.925 8.625 A 6.72 6.72 0 0 1 265.194 8.736 Q 266.683 9.023 267.413 10.05 A 14.216 14.216 0 0 1 268.269 11.427 Q 268.67 12.155 269.052 13.013 A 26.635 26.635 0 0 1 269.325 13.65 L 274.5 25.875 Q 275.1 27.525 275.438 29.288 A 18.69 18.69 0 0 1 275.719 31.5 A 23.698 23.698 0 0 1 275.775 33.15 L 275.775 49.125 Z M 359.85 49.125 L 359.1 49.125 L 359.1 9.375 L 343.725 9.375 L 343.725 8.625 L 375.225 8.625 L 375.225 9.375 L 359.85 9.375 L 359.85 49.125 Z M 585.075 49.125 L 584.325 49.125 L 584.325 9.375 L 568.95 9.375 L 568.95 8.625 L 600.45 8.625 L 600.45 9.375 L 585.075 9.375 L 585.075 49.125 Z M 429.975 34.35 L 414.525 34.35 L 414.525 49.125 L 413.775 49.125 L 413.775 8.625 L 429.975 8.625 Q 433.5 8.625 435.713 9.413 A 10.517 10.517 0 0 1 437.287 10.114 Q 438.134 10.584 438.762 11.176 A 5.967 5.967 0 0 1 439.125 11.55 A 7.288 7.288 0 0 1 440.714 14.536 A 8.587 8.587 0 0 1 440.775 14.775 A 16.371 16.371 0 0 1 441.181 17.495 A 19.73 19.73 0 0 1 441.225 18.825 L 441.225 24.375 A 18.503 18.503 0 0 1 441.083 26.715 A 15.007 15.007 0 0 1 440.775 28.388 A 7.254 7.254 0 0 1 439.71 30.803 A 6.84 6.84 0 0 1 439.125 31.538 Q 438.057 32.705 436.188 33.428 A 12.045 12.045 0 0 1 435.713 33.6 Q 433.5 34.35 429.975 34.35 Z M 494.1 17.85 L 494.1 39.975 A 10.188 10.188 0 0 1 493.461 43.648 A 9.117 9.117 0 0 1 490.875 47.288 A 8.616 8.616 0 0 1 488.317 48.771 Q 485.752 49.771 481.701 50.019 A 46.414 46.414 0 0 1 478.875 50.1 Q 470.1 50.1 466.95 47.288 A 9.24 9.24 0 0 1 463.812 40.531 A 12.421 12.421 0 0 1 463.8 39.975 L 463.8 17.85 A 10.437 10.437 0 0 1 464.402 14.239 A 9.11 9.11 0 0 1 466.95 10.538 Q 469.508 8.254 475.773 7.825 A 45.475 45.475 0 0 1 478.875 7.725 Q 487.65 7.725 490.875 10.538 A 9.144 9.144 0 0 1 494.084 17.226 A 12.081 12.081 0 0 1 494.1 17.85 Z M 698.025 17.85 L 698.025 39.975 A 10.188 10.188 0 0 1 697.386 43.648 A 9.117 9.117 0 0 1 694.8 47.288 A 8.616 8.616 0 0 1 692.242 48.771 Q 689.677 49.771 685.626 50.019 A 46.414 46.414 0 0 1 682.8 50.1 Q 674.025 50.1 670.875 47.288 A 9.24 9.24 0 0 1 667.737 40.531 A 12.421 12.421 0 0 1 667.725 39.975 L 667.725 17.85 A 10.437 10.437 0 0 1 668.327 14.239 A 9.11 9.11 0 0 1 670.875 10.538 Q 673.433 8.254 679.698 7.825 A 45.475 45.475 0 0 1 682.8 7.725 Q 691.575 7.725 694.8 10.538 A 9.144 9.144 0 0 1 698.009 17.226 A 12.081 12.081 0 0 1 698.025 17.85 Z M 850.8 17.85 L 850.8 39.975 A 10.188 10.188 0 0 1 850.161 43.648 A 9.117 9.117 0 0 1 847.575 47.288 A 8.616 8.616 0 0 1 845.017 48.771 Q 842.452 49.771 838.401 50.019 A 46.414 46.414 0 0 1 835.575 50.1 Q 826.8 50.1 823.65 47.288 A 9.24 9.24 0 0 1 820.512 40.531 A 12.421 12.421 0 0 1 820.5 39.975 L 820.5 17.85 A 10.437 10.437 0 0 1 821.102 14.239 A 9.11 9.11 0 0 1 823.65 10.538 Q 826.208 8.254 832.473 7.825 A 45.475 45.475 0 0 1 835.575 7.725 Q 844.35 7.725 847.575 10.538 A 9.144 9.144 0 0 1 850.784 17.226 A 12.081 12.081 0 0 1 850.8 17.85 Z M 464.55 17.85 L 464.55 39.975 A 9.533 9.533 0 0 0 465.104 43.287 A 8.348 8.348 0 0 0 467.55 46.763 Q 470.55 49.35 478.875 49.35 Q 485.381 49.35 488.681 47.77 A 7.481 7.481 0 0 0 490.275 46.763 A 8.336 8.336 0 0 0 493.327 40.685 A 10.934 10.934 0 0 0 493.35 39.975 L 493.35 17.85 Q 493.35 13.65 490.275 11.063 Q 487.781 8.964 481.835 8.568 A 44.583 44.583 0 0 0 478.875 8.475 A 42.115 42.115 0 0 0 475.155 8.627 Q 471.503 8.952 469.285 9.975 A 7.355 7.355 0 0 0 467.55 11.063 A 8.418 8.418 0 0 0 464.568 17.204 A 11.254 11.254 0 0 0 464.55 17.85 Z M 668.475 17.85 L 668.475 39.975 A 9.533 9.533 0 0 0 669.029 43.287 A 8.348 8.348 0 0 0 671.475 46.763 Q 674.475 49.35 682.8 49.35 Q 689.306 49.35 692.606 47.77 A 7.481 7.481 0 0 0 694.2 46.763 A 8.336 8.336 0 0 0 697.252 40.685 A 10.934 10.934 0 0 0 697.275 39.975 L 697.275 17.85 Q 697.275 13.65 694.2 11.063 Q 691.706 8.964 685.76 8.568 A 44.583 44.583 0 0 0 682.8 8.475 A 42.115 42.115 0 0 0 679.08 8.627 Q 675.428 8.952 673.21 9.975 A 7.355 7.355 0 0 0 671.475 11.063 A 8.418 8.418 0 0 0 668.493 17.204 A 11.254 11.254 0 0 0 668.475 17.85 Z M 821.25 17.85 L 821.25 39.975 A 9.533 9.533 0 0 0 821.804 43.287 A 8.348 8.348 0 0 0 824.25 46.763 Q 827.25 49.35 835.575 49.35 Q 842.081 49.35 845.381 47.77 A 7.481 7.481 0 0 0 846.975 46.763 A 8.336 8.336 0 0 0 850.027 40.685 A 10.934 10.934 0 0 0 850.05 39.975 L 850.05 17.85 Q 850.05 13.65 846.975 11.063 Q 844.481 8.964 838.535 8.568 A 44.583 44.583 0 0 0 835.575 8.475 A 42.115 42.115 0 0 0 831.855 8.627 Q 828.203 8.952 825.985 9.975 A 7.355 7.355 0 0 0 824.25 11.063 A 8.418 8.418 0 0 0 821.268 17.204 A 11.254 11.254 0 0 0 821.25 17.85 Z M 245.775 33.15 L 245.775 35.475 L 275.025 35.475 L 275.025 33.15 A 21.324 21.324 0 0 0 274.906 30.851 A 17.245 17.245 0 0 0 274.688 29.4 A 24.435 24.435 0 0 0 274.135 27.135 A 21.026 21.026 0 0 0 273.825 26.175 L 268.65 13.95 A 23.818 23.818 0 0 0 267.941 12.418 Q 267.445 11.446 266.925 10.688 A 2.85 2.85 0 0 0 265.331 9.56 Q 264.713 9.375 263.925 9.375 L 256.575 9.375 A 6.018 6.018 0 0 0 255.431 9.476 Q 254.798 9.599 254.319 9.871 A 2.662 2.662 0 0 0 253.425 10.688 A 13.648 13.648 0 0 0 252.588 12.091 Q 252.215 12.806 251.872 13.636 A 22.906 22.906 0 0 0 251.775 13.875 L 246.975 26.175 A 22.384 22.384 0 0 0 246.305 28.5 A 26.084 26.084 0 0 0 246.113 29.4 A 18.047 18.047 0 0 0 245.823 31.674 A 22.367 22.367 0 0 0 245.775 33.15 Z M 414.525 9.375 L 414.525 33.6 L 429.975 33.6 Q 432.26 33.6 433.952 33.277 A 11.27 11.27 0 0 0 435.338 32.925 A 9.432 9.432 0 0 0 436.806 32.312 Q 437.605 31.89 438.197 31.344 A 5.376 5.376 0 0 0 438.525 31.013 Q 439.65 29.775 440.063 28.088 A 14.286 14.286 0 0 0 440.412 25.906 A 18.052 18.052 0 0 0 440.475 24.375 L 440.475 18.825 A 17.488 17.488 0 0 0 440.33 16.526 A 14.345 14.345 0 0 0 440.063 15.075 Q 439.65 13.35 438.525 12.075 Q 437.4 10.8 435.338 10.088 A 11.271 11.271 0 0 0 433.617 9.653 Q 432.038 9.375 429.975 9.375 L 414.525 9.375 Z M 158.625 9.375 L 142.275 9.375 L 142.275 31.05 L 158.625 31.05 Q 163.275 31.05 164.85 28.8 A 7.693 7.693 0 0 0 165.884 26.615 Q 166.425 24.842 166.425 22.425 L 166.425 17.175 A 10.174 10.174 0 0 0 166.133 14.674 A 7.405 7.405 0 0 0 164.513 11.55 A 5.971 5.971 0 0 0 161.804 9.822 Q 160.814 9.501 159.605 9.41 A 13.162 13.162 0 0 0 158.625 9.375 Z M 537 9.375 L 520.65 9.375 L 520.65 31.05 L 537 31.05 Q 541.65 31.05 543.225 28.8 A 7.693 7.693 0 0 0 544.259 26.615 Q 544.8 24.842 544.8 22.425 L 544.8 17.175 A 10.174 10.174 0 0 0 544.508 14.674 A 7.405 7.405 0 0 0 542.888 11.55 A 5.971 5.971 0 0 0 540.179 9.822 Q 539.189 9.501 537.98 9.41 A 13.162 13.162 0 0 0 537 9.375 Z M 472.725 39 L 472.725 18.825 A 3.131 3.131 0 0 1 473.714 16.516 A 4.18 4.18 0 0 1 473.85 16.388 Q 474.895 15.447 478.465 15.38 A 29.97 29.97 0 0 1 479.025 15.375 A 25.307 25.307 0 0 1 480.657 15.424 Q 483.037 15.578 483.992 16.226 A 1.925 1.925 0 0 1 484.2 16.388 A 3.522 3.522 0 0 1 484.969 17.353 A 3.093 3.093 0 0 1 485.325 18.825 L 485.325 39 A 3.226 3.226 0 0 1 484.336 41.384 A 3.985 3.985 0 0 1 484.2 41.513 Q 483.155 42.453 479.585 42.52 A 29.97 29.97 0 0 1 479.025 42.525 A 25.307 25.307 0 0 1 477.393 42.477 Q 475.013 42.322 474.058 41.674 A 1.925 1.925 0 0 1 473.85 41.513 A 3.353 3.353 0 0 1 472.964 40.279 A 3.364 3.364 0 0 1 472.725 39 Z M 676.65 39 L 676.65 18.825 A 3.131 3.131 0 0 1 677.639 16.516 A 4.18 4.18 0 0 1 677.775 16.388 Q 678.82 15.447 682.39 15.38 A 29.97 29.97 0 0 1 682.95 15.375 A 25.307 25.307 0 0 1 684.582 15.424 Q 686.962 15.578 687.917 16.226 A 1.925 1.925 0 0 1 688.125 16.388 A 3.522 3.522 0 0 1 688.894 17.353 A 3.093 3.093 0 0 1 689.25 18.825 L 689.25 39 A 3.226 3.226 0 0 1 688.261 41.384 A 3.985 3.985 0 0 1 688.125 41.513 Q 687.08 42.453 683.51 42.52 A 29.97 29.97 0 0 1 682.95 42.525 A 25.307 25.307 0 0 1 681.318 42.477 Q 678.938 42.322 677.983 41.674 A 1.925 1.925 0 0 1 677.775 41.513 A 3.353 3.353 0 0 1 676.889 40.279 A 3.364 3.364 0 0 1 676.65 39 Z M 829.425 39 L 829.425 18.825 A 3.131 3.131 0 0 1 830.414 16.516 A 4.18 4.18 0 0 1 830.55 16.388 Q 831.595 15.447 835.165 15.38 A 29.97 29.97 0 0 1 835.725 15.375 A 25.307 25.307 0 0 1 837.357 15.424 Q 839.737 15.578 840.692 16.226 A 1.925 1.925 0 0 1 840.9 16.388 A 3.522 3.522 0 0 1 841.669 17.353 A 3.093 3.093 0 0 1 842.025 18.825 L 842.025 39 A 3.226 3.226 0 0 1 841.036 41.384 A 3.985 3.985 0 0 1 840.9 41.513 Q 839.855 42.453 836.285 42.52 A 29.97 29.97 0 0 1 835.725 42.525 A 25.307 25.307 0 0 1 834.093 42.477 Q 831.713 42.322 830.758 41.674 A 1.925 1.925 0 0 1 830.55 41.513 A 3.353 3.353 0 0 1 829.664 40.279 A 3.364 3.364 0 0 1 829.425 39 Z M 473.475 18.825 L 473.475 39 A 2.476 2.476 0 0 0 473.663 39.983 Q 473.943 40.637 474.638 41.063 A 3.325 3.325 0 0 0 475.401 41.391 Q 476.245 41.649 477.591 41.734 A 22.948 22.948 0 0 0 479.025 41.775 A 22.919 22.919 0 0 0 480.466 41.733 Q 481.799 41.649 482.639 41.394 A 3.341 3.341 0 0 0 483.413 41.063 A 2.551 2.551 0 0 0 484.132 40.424 Q 484.575 39.833 484.575 39 L 484.575 18.825 A 2.149 2.149 0 0 0 483.808 17.125 A 2.983 2.983 0 0 0 483.413 16.838 A 3.325 3.325 0 0 0 482.649 16.509 Q 481.806 16.251 480.46 16.167 A 22.948 22.948 0 0 0 479.025 16.125 Q 475.875 16.125 474.675 16.838 A 2.793 2.793 0 0 0 474.017 17.366 A 2.106 2.106 0 0 0 473.475 18.825 Z M 677.4 18.825 L 677.4 39 A 2.476 2.476 0 0 0 677.588 39.983 Q 677.868 40.637 678.563 41.063 A 3.325 3.325 0 0 0 679.326 41.391 Q 680.17 41.649 681.516 41.734 A 22.948 22.948 0 0 0 682.95 41.775 A 22.919 22.919 0 0 0 684.391 41.733 Q 685.724 41.649 686.564 41.394 A 3.341 3.341 0 0 0 687.338 41.063 A 2.551 2.551 0 0 0 688.057 40.424 Q 688.5 39.833 688.5 39 L 688.5 18.825 A 2.149 2.149 0 0 0 687.733 17.125 A 2.983 2.983 0 0 0 687.338 16.838 A 3.325 3.325 0 0 0 686.574 16.509 Q 685.731 16.251 684.385 16.167 A 22.948 22.948 0 0 0 682.95 16.125 Q 679.8 16.125 678.6 16.838 A 2.793 2.793 0 0 0 677.942 17.366 A 2.106 2.106 0 0 0 677.4 18.825 Z M 830.175 18.825 L 830.175 39 A 2.476 2.476 0 0 0 830.363 39.983 Q 830.643 40.637 831.338 41.063 A 3.325 3.325 0 0 0 832.101 41.391 Q 832.945 41.649 834.291 41.734 A 22.948 22.948 0 0 0 835.725 41.775 A 22.919 22.919 0 0 0 837.166 41.733 Q 838.499 41.649 839.339 41.394 A 3.341 3.341 0 0 0 840.113 41.063 A 2.551 2.551 0 0 0 840.832 40.424 Q 841.275 39.833 841.275 39 L 841.275 18.825 A 2.149 2.149 0 0 0 840.508 17.125 A 2.983 2.983 0 0 0 840.113 16.838 A 3.325 3.325 0 0 0 839.349 16.509 Q 838.506 16.251 837.16 16.167 A 22.948 22.948 0 0 0 835.725 16.125 Q 832.575 16.125 831.375 16.838 A 2.793 2.793 0 0 0 830.717 17.366 A 2.106 2.106 0 0 0 830.175 18.825 Z M 254.25 29.025 L 257.775 17.625 A 4.725 4.725 0 0 1 257.966 17.24 Q 258.173 16.869 258.397 16.664 A 1.362 1.362 0 0 1 258.413 16.65 Q 258.75 16.35 259.2 16.35 L 261.075 16.35 Q 261.525 16.35 261.863 16.65 Q 262.2 16.95 262.5 17.625 L 266.025 29.025 L 254.25 29.025 Z M 422.25 27.225 L 422.25 15.9 L 429 15.9 Q 431.175 15.9 431.85 17.025 A 4.769 4.769 0 0 1 432.515 19.224 A 5.791 5.791 0 0 1 432.525 19.575 L 432.525 23.55 A 5.147 5.147 0 0 1 432.281 25.156 A 4.607 4.607 0 0 1 431.85 26.1 A 1.997 1.997 0 0 1 430.93 26.889 Q 430.236 27.204 429.147 27.224 A 8.116 8.116 0 0 1 429 27.225 L 422.25 27.225 Z M 264.975 28.275 L 261.75 17.85 L 261.825 17.925 A 12.083 12.083 0 0 0 261.619 17.53 A 10.331 10.331 0 0 0 261.525 17.363 A 0.55 0.55 0 0 0 261.393 17.204 Q 261.264 17.1 261.075 17.1 L 259.2 17.1 Q 258.928 17.1 258.779 17.317 A 0.656 0.656 0 0 0 258.75 17.363 A 10.962 10.962 0 0 0 258.544 17.741 A 12.798 12.798 0 0 0 258.45 17.925 L 258.525 17.85 L 255.3 28.275 L 264.975 28.275 Z M 429 16.65 L 423 16.65 L 423 26.475 L 429 26.475 A 5.112 5.112 0 0 0 429.765 26.422 Q 430.852 26.257 431.25 25.575 A 3.883 3.883 0 0 0 431.769 23.794 A 4.67 4.67 0 0 0 431.775 23.55 L 431.775 19.575 A 4.137 4.137 0 0 0 431.565 18.241 A 3.756 3.756 0 0 0 431.25 17.55 Q 430.738 16.673 429.087 16.651 A 6.441 6.441 0 0 0 429 16.65 Z M 150.375 24.975 L 150.375 15.375 L 156 15.375 A 5.858 5.858 0 0 1 156.895 15.438 Q 158.083 15.623 158.595 16.344 A 1.819 1.819 0 0 1 158.625 16.388 A 3.899 3.899 0 0 1 159.189 17.762 A 5.52 5.52 0 0 1 159.3 18.9 L 159.3 21.45 A 5.52 5.52 0 0 1 159.189 22.588 A 3.899 3.899 0 0 1 158.625 23.963 A 1.987 1.987 0 0 1 157.732 24.681 Q 157.372 24.837 156.908 24.91 A 5.836 5.836 0 0 1 156 24.975 L 150.375 24.975 Z M 528.75 24.975 L 528.75 15.375 L 534.375 15.375 A 5.858 5.858 0 0 1 535.27 15.438 Q 536.458 15.623 536.97 16.344 A 1.819 1.819 0 0 1 537 16.388 A 3.899 3.899 0 0 1 537.564 17.762 A 5.52 5.52 0 0 1 537.675 18.9 L 537.675 21.45 A 5.52 5.52 0 0 1 537.564 22.588 A 3.899 3.899 0 0 1 537 23.963 A 1.987 1.987 0 0 1 536.107 24.681 Q 535.747 24.837 535.283 24.91 A 5.836 5.836 0 0 1 534.375 24.975 L 528.75 24.975 Z M 156 16.125 L 151.125 16.125 L 151.125 24.225 L 156 24.225 Q 157.363 24.225 157.912 23.635 A 1.275 1.275 0 0 0 158.063 23.438 A 3.092 3.092 0 0 0 158.439 22.5 Q 158.529 22.112 158.546 21.661 A 5.643 5.643 0 0 0 158.55 21.45 L 158.55 18.9 A 4.89 4.89 0 0 0 158.482 18.058 Q 158.396 17.568 158.203 17.169 A 2.795 2.795 0 0 0 158.063 16.913 A 1.417 1.417 0 0 0 157.428 16.374 Q 156.886 16.125 156 16.125 Z M 534.375 16.125 L 529.5 16.125 L 529.5 24.225 L 534.375 24.225 Q 535.738 24.225 536.287 23.635 A 1.275 1.275 0 0 0 536.438 23.438 A 3.092 3.092 0 0 0 536.814 22.5 Q 536.904 22.112 536.921 21.661 A 5.643 5.643 0 0 0 536.925 21.45 L 536.925 18.9 A 4.89 4.89 0 0 0 536.857 18.058 Q 536.771 17.568 536.578 17.169 A 2.795 2.795 0 0 0 536.438 16.913 A 1.417 1.417 0 0 0 535.803 16.374 Q 535.261 16.125 534.375 16.125 Z" vector-effect="non-scaling-stroke"/></g></svg>